# xmcd CD database file
#
# Track frame offsets:
#	150
#	13544
#	41281
#	49708
#	75145
#	98105
#	118732
#	134722
#	175148
#	189478
#	210438
#	224014
#	241144
#	262120
#	277896
#	331492
#
# Disc length: 4567 seconds
#
# Revision: 0
# Processed by: cddbd v1.4PL0 Copyright (c) Steve Scherf et al.
# Submitted via: CDex 1.50
#
DISCID=dd11d510
DTITLE=Stevie Ray Vaughan and Double Trouble - The Real Deal, Greatest Hits Vol 2
DYEAR=1900
DGENRE=Blues
TTITLE0=Stevie Ray Vaughan and Double-01- Love Stuck Baby
TTITLE1=Stevie Ray Vaughan and Double-02-A'int Gone 'N' Give Up On Love
TTITLE2=Stevie Ray Vaughan and Double-03-Scuttle Buttin'
TTITLE3=Stevie Ray Vaughan and Double-04-Wall Of Denial
TTITLE4=Stevie Ray Vaughan and Double-05-Lenny
TTITLE5=Stevie Ray Vaughan and Double-06-Superstition
TTITLE6=Stevie Ray Vaughan and Double-07-Empty Arms
TTITLE7=Stevie Ray Vaughan and Double-08-Riviera Paradise
TTITLE8=Stevie Ray Vaughan and Double-09-Look a little sister
TTITLE9=Stevie Ray Vaughan and Double-10-Willie The Wimp (Live)
TTITLE10=Stevie Ray Vaughan and Double-11-Pipeline
TTITLE11=Stevie Ray Vaughan and Double-12-Shake for me (live)
TTITLE12=Stevie Ray Vaughan and Double-13-Leave My Girl Alone (live)
TTITLE13=Stevie Ray Vaughan and Double-14-Telefone Song
TTITLE14=Stevie Ray Vaughan and Double-15-Voodo Chile (Slight Return)
TTITLE15=Stevie Ray Vaughan and Double-16-Life by the drop
EXTD=
EXTT0=
EXTT1=
EXTT2=
EXTT3=
EXTT4=
EXTT5=
EXTT6=
EXTT7=
EXTT8=
EXTT9=
EXTT10=
EXTT11=
EXTT12=
EXTT13=
EXTT14=
EXTT15=
PLAYORDER=
